G75*
G70*
%OFA0B0*%
%FSLAX24Y24*%
%IPPOS*%
%LPD*%
%AMOC8*
5,1,8,0,0,1.08239X$1,22.5*
%
%ADD10C,0.0594*%
%ADD11OC8,0.0825*%
%ADD12OC8,0.1270*%
%ADD13C,0.0515*%
%ADD14C,0.1975*%
%ADD15C,0.0240*%
%ADD16R,0.0396X0.0396*%
%ADD17C,0.0160*%
D10*
X002000Y001000D03*
X002000Y002000D03*
X002000Y003000D03*
X002000Y004000D03*
X002000Y005000D03*
X002000Y006000D03*
X002000Y007000D03*
X002000Y008000D03*
X002000Y009000D03*
X002000Y010000D03*
X002000Y011000D03*
X002000Y012000D03*
X002000Y013000D03*
X002000Y014000D03*
X002000Y015000D03*
X002000Y016000D03*
X002000Y017000D03*
X002000Y018000D03*
X002000Y019000D03*
X002000Y020000D03*
X009000Y020000D03*
X009000Y019000D03*
X009000Y018000D03*
X009000Y017000D03*
X009000Y016000D03*
X009000Y015000D03*
X009000Y014000D03*
X009000Y013000D03*
X009000Y012000D03*
X009000Y011000D03*
X009000Y010000D03*
X009000Y009000D03*
X009000Y008000D03*
X009000Y007000D03*
X009000Y006000D03*
X009000Y005000D03*
X009000Y004000D03*
X009000Y003000D03*
X009000Y002000D03*
X009000Y001000D03*
X006500Y001091D03*
X005500Y001091D03*
X004500Y001091D03*
D11*
X005500Y017000D03*
X013000Y017000D03*
X020000Y017000D03*
D12*
X017800Y017000D03*
X020000Y020000D03*
X022200Y017000D03*
X015200Y017000D03*
X013000Y020000D03*
X010800Y017000D03*
X007700Y017000D03*
X005500Y020000D03*
X003300Y017000D03*
D13*
X012743Y009000D02*
X013257Y009000D01*
X013257Y008000D02*
X012743Y008000D01*
X012743Y007000D02*
X013257Y007000D01*
X013257Y006000D02*
X012743Y006000D01*
X012743Y005000D02*
X013257Y005000D01*
D14*
X021661Y003425D03*
D15*
X000206Y000580D02*
X000102Y000520D01*
X001860Y000520D01*
X001719Y000579D01*
X001579Y000719D01*
X001503Y000901D01*
X001503Y001099D01*
X001579Y001281D01*
X001719Y001421D01*
X001901Y001497D01*
X002099Y001497D01*
X002281Y001421D01*
X002421Y001281D01*
X002497Y001099D01*
X002497Y000901D01*
X002421Y000719D01*
X002281Y000579D01*
X002140Y000520D01*
X008860Y000520D01*
X008719Y000579D01*
X008579Y000719D01*
X008503Y000901D01*
X008503Y001099D01*
X008579Y001281D01*
X008719Y001421D01*
X008901Y001497D01*
X009099Y001497D01*
X009281Y001421D01*
X009421Y001281D01*
X009497Y001099D01*
X009497Y000901D01*
X009421Y000719D01*
X009281Y000579D01*
X009140Y000520D01*
X025398Y000520D01*
X025294Y000580D01*
X025080Y000794D01*
X024928Y001056D01*
X024850Y001349D01*
X024850Y001651D01*
X024928Y001944D01*
X025080Y002206D01*
X025294Y002420D01*
X025556Y002572D01*
X025849Y002650D01*
X026151Y002650D01*
X026444Y002572D01*
X026706Y002420D01*
X026920Y002206D01*
X026972Y002116D01*
X026972Y018884D01*
X026920Y018794D01*
X026706Y018580D01*
X026444Y018428D01*
X026151Y018350D01*
X025849Y018350D01*
X025556Y018428D01*
X025294Y018580D01*
X025080Y018794D01*
X024928Y019056D01*
X024850Y019349D01*
X024850Y019651D01*
X024928Y019944D01*
X025080Y020206D01*
X025224Y020350D01*
X020855Y020350D01*
X020855Y020098D01*
X020098Y020098D01*
X020098Y019902D01*
X020855Y019902D01*
X020855Y019646D01*
X020354Y019145D01*
X020098Y019145D01*
X020098Y019902D01*
X019902Y019902D01*
X019145Y019902D01*
X019145Y019646D01*
X019646Y019145D01*
X019902Y019145D01*
X019902Y019902D01*
X019902Y020098D01*
X019145Y020098D01*
X019145Y020350D01*
X013855Y020350D01*
X013855Y020098D01*
X013098Y020098D01*
X013098Y019902D01*
X013855Y019902D01*
X013855Y019646D01*
X013354Y019145D01*
X013098Y019145D01*
X013098Y019902D01*
X012902Y019902D01*
X012902Y019145D01*
X012646Y019145D01*
X012145Y019646D01*
X012145Y019902D01*
X012902Y019902D01*
X012902Y020098D01*
X012145Y020098D01*
X012145Y020350D01*
X009353Y020350D01*
X009421Y020281D01*
X009497Y020099D01*
X009497Y019901D01*
X009421Y019719D01*
X009281Y019579D01*
X009099Y019503D01*
X008901Y019503D01*
X008719Y019579D01*
X008579Y019719D01*
X008503Y019901D01*
X008503Y020099D01*
X008579Y020281D01*
X008647Y020350D01*
X007353Y020350D01*
X007447Y020123D01*
X007447Y019775D01*
X007314Y019454D01*
X007112Y019252D01*
X007146Y019218D01*
X007270Y018918D01*
X007270Y018594D01*
X007146Y018294D01*
X006917Y018065D01*
X006617Y017941D01*
X006293Y017941D01*
X005993Y018065D01*
X005764Y018294D01*
X005758Y018308D01*
X005242Y018308D01*
X005236Y018294D01*
X005007Y018065D01*
X004707Y017941D01*
X004383Y017941D01*
X004083Y018065D01*
X003854Y018294D01*
X003730Y018594D01*
X003730Y018918D01*
X003854Y019218D01*
X003888Y019252D01*
X003686Y019454D01*
X003553Y019775D01*
X003553Y020123D01*
X003647Y020350D01*
X002353Y020350D01*
X002421Y020281D01*
X002497Y020099D01*
X002497Y019901D01*
X002421Y019719D01*
X002281Y019579D01*
X002099Y019503D01*
X001901Y019503D01*
X001719Y019579D01*
X001579Y019719D01*
X001503Y019901D01*
X001503Y020099D01*
X001579Y020281D01*
X001647Y020350D01*
X000276Y020350D01*
X000420Y020206D01*
X000572Y019944D01*
X000650Y019651D01*
X000650Y019349D01*
X000572Y019056D01*
X000420Y018794D01*
X000206Y018580D01*
X-000056Y018428D01*
X-000349Y018350D01*
X-000651Y018350D01*
X-000944Y018428D01*
X-001206Y018580D01*
X-001420Y018794D01*
X-001480Y018898D01*
X-001480Y002102D01*
X-001420Y002206D01*
X-001206Y002420D01*
X-000944Y002572D01*
X-000651Y002650D01*
X-000349Y002650D01*
X-000056Y002572D01*
X000206Y002420D01*
X000420Y002206D01*
X000572Y001944D01*
X000650Y001651D01*
X000650Y001349D01*
X000572Y001056D01*
X000420Y000794D01*
X000206Y000580D01*
X000342Y000716D02*
X001582Y000716D01*
X001503Y000954D02*
X000513Y000954D01*
X000608Y001193D02*
X001542Y001193D01*
X001742Y001431D02*
X000650Y001431D01*
X000645Y001670D02*
X001628Y001670D01*
X001579Y001719D02*
X001719Y001579D01*
X001901Y001503D01*
X002099Y001503D01*
X002281Y001579D01*
X002421Y001719D01*
X002497Y001901D01*
X002497Y002099D01*
X002421Y002281D01*
X002281Y002421D01*
X002107Y002494D01*
X002121Y002496D01*
X002198Y002521D01*
X002271Y002558D01*
X002337Y002606D01*
X002394Y002663D01*
X002442Y002729D01*
X002479Y002802D01*
X002504Y002879D01*
X002517Y002959D01*
X002517Y003000D01*
X002517Y003041D01*
X002504Y003121D01*
X002479Y003198D01*
X002442Y003271D01*
X002394Y003337D01*
X002337Y003394D01*
X002271Y003442D01*
X002198Y003479D01*
X002121Y003504D01*
X002107Y003506D01*
X002281Y003579D01*
X002421Y003719D01*
X002497Y003901D01*
X002497Y004099D01*
X002421Y004281D01*
X002281Y004421D01*
X002099Y004497D01*
X001901Y004497D01*
X001719Y004421D01*
X001579Y004281D01*
X001503Y004099D01*
X001503Y003901D01*
X001579Y003719D01*
X001719Y003579D01*
X001893Y003506D01*
X001879Y003504D01*
X001802Y003479D01*
X001729Y003442D01*
X001663Y003394D01*
X001606Y003337D01*
X001558Y003271D01*
X001521Y003198D01*
X001496Y003121D01*
X001483Y003041D01*
X001483Y003000D01*
X001483Y002959D01*
X001496Y002879D01*
X001521Y002802D01*
X001558Y002729D01*
X001606Y002663D01*
X001663Y002606D01*
X001729Y002558D01*
X001802Y002521D01*
X001879Y002496D01*
X001893Y002494D01*
X001719Y002421D01*
X001579Y002281D01*
X001503Y002099D01*
X001503Y001901D01*
X001579Y001719D01*
X001503Y001908D02*
X000581Y001908D01*
X000455Y002147D02*
X001523Y002147D01*
X001682Y002385D02*
X000241Y002385D01*
X-000250Y002624D02*
X001646Y002624D01*
X001501Y002862D02*
X-001480Y002862D01*
X-001480Y002624D02*
X-000750Y002624D01*
X-001241Y002385D02*
X-001480Y002385D01*
X-001480Y002147D02*
X-001455Y002147D01*
X-001480Y003101D02*
X001493Y003101D01*
X001483Y003000D02*
X002000Y003000D01*
X002517Y003000D01*
X002000Y003000D01*
X002000Y003000D01*
X002000Y003000D01*
X001483Y003000D01*
X001608Y003339D02*
X-001480Y003339D01*
X-001480Y003578D02*
X001722Y003578D01*
X001538Y003816D02*
X-001480Y003816D01*
X-001480Y004055D02*
X001503Y004055D01*
X001590Y004293D02*
X-001480Y004293D01*
X-001480Y004532D02*
X001833Y004532D01*
X001901Y004503D02*
X002099Y004503D01*
X002281Y004579D01*
X002421Y004719D01*
X002497Y004901D01*
X002497Y005099D01*
X002421Y005281D01*
X002281Y005421D01*
X002099Y005497D01*
X001901Y005497D01*
X001719Y005421D01*
X001579Y005281D01*
X001503Y005099D01*
X001503Y004901D01*
X001579Y004719D01*
X001719Y004579D01*
X001901Y004503D01*
X002167Y004532D02*
X008833Y004532D01*
X008901Y004503D02*
X008719Y004579D01*
X008579Y004719D01*
X008503Y004901D01*
X008503Y005099D01*
X008579Y005281D01*
X008719Y005421D01*
X008901Y005497D01*
X009099Y005497D01*
X009281Y005421D01*
X009421Y005281D01*
X009497Y005099D01*
X009497Y004901D01*
X009421Y004719D01*
X009281Y004579D01*
X009099Y004503D01*
X008901Y004503D01*
X008901Y004497D02*
X008719Y004421D01*
X008579Y004281D01*
X008503Y004099D01*
X008503Y003901D01*
X008579Y003719D01*
X008719Y003579D01*
X008893Y003506D01*
X008879Y003504D01*
X008802Y003479D01*
X008729Y003442D01*
X008663Y003394D01*
X008606Y003337D01*
X008558Y003271D01*
X008521Y003198D01*
X008496Y003121D01*
X008483Y003041D01*
X008483Y003000D01*
X008483Y002959D01*
X008496Y002879D01*
X008521Y002802D01*
X008558Y002729D01*
X008606Y002663D01*
X008663Y002606D01*
X008729Y002558D01*
X008802Y002521D01*
X008879Y002496D01*
X008893Y002494D01*
X008719Y002421D01*
X008579Y002281D01*
X008503Y002099D01*
X008503Y001901D01*
X008579Y001719D01*
X008719Y001579D01*
X008901Y001503D01*
X009099Y001503D01*
X009281Y001579D01*
X009421Y001719D01*
X009497Y001901D01*
X009497Y002099D01*
X009421Y002281D01*
X009281Y002421D01*
X009107Y002494D01*
X009121Y002496D01*
X009198Y002521D01*
X009271Y002558D01*
X009337Y002606D01*
X009394Y002663D01*
X009442Y002729D01*
X009479Y002802D01*
X009504Y002879D01*
X009517Y002959D01*
X009517Y003000D01*
X009517Y003041D01*
X009504Y003121D01*
X009479Y003198D01*
X009442Y003271D01*
X009394Y003337D01*
X009337Y003394D01*
X009271Y003442D01*
X009198Y003479D01*
X009121Y003504D01*
X009107Y003506D01*
X009281Y003579D01*
X009421Y003719D01*
X009497Y003901D01*
X009497Y004099D01*
X009421Y004281D01*
X009281Y004421D01*
X009099Y004497D01*
X008901Y004497D01*
X009167Y004532D02*
X021203Y004532D01*
X020932Y004375D01*
X020711Y004154D01*
X020555Y003884D01*
X020474Y003582D01*
X020474Y003269D01*
X020555Y002967D01*
X020711Y002696D01*
X020932Y002475D01*
X021203Y002319D01*
X021505Y002238D01*
X021818Y002238D01*
X022120Y002319D01*
X022390Y002475D01*
X022612Y002696D01*
X022768Y002967D01*
X022849Y003269D01*
X022849Y003582D01*
X022768Y003884D01*
X022612Y004154D01*
X022390Y004375D01*
X022120Y004532D01*
X021818Y004613D01*
X021505Y004613D01*
X021203Y004532D01*
X020850Y004293D02*
X009410Y004293D01*
X009497Y004055D02*
X020654Y004055D01*
X020537Y003816D02*
X009462Y003816D01*
X009278Y003578D02*
X020474Y003578D01*
X020474Y003339D02*
X009392Y003339D01*
X009507Y003101D02*
X020519Y003101D01*
X020615Y002862D02*
X009499Y002862D01*
X009517Y003000D02*
X009000Y003000D01*
X009517Y003000D01*
X009354Y002624D02*
X020784Y002624D01*
X021088Y002385D02*
X009318Y002385D01*
X009477Y002147D02*
X025045Y002147D01*
X024919Y001908D02*
X009497Y001908D01*
X009372Y001670D02*
X024855Y001670D01*
X024850Y001431D02*
X009258Y001431D01*
X009458Y001193D02*
X024892Y001193D01*
X024987Y000954D02*
X009497Y000954D01*
X009418Y000716D02*
X025158Y000716D01*
X025259Y002385D02*
X022235Y002385D01*
X022539Y002624D02*
X025750Y002624D01*
X026250Y002624D02*
X026972Y002624D01*
X026972Y002862D02*
X022707Y002862D01*
X022804Y003101D02*
X026972Y003101D01*
X026972Y003339D02*
X022849Y003339D01*
X022849Y003578D02*
X026972Y003578D01*
X026972Y003816D02*
X022786Y003816D01*
X022669Y004055D02*
X026972Y004055D01*
X026972Y004293D02*
X022473Y004293D01*
X022120Y004532D02*
X026972Y004532D01*
X026972Y004770D02*
X013657Y004770D01*
X013645Y004741D02*
X013715Y004909D01*
X013715Y005091D01*
X013645Y005259D01*
X013517Y005388D01*
X013348Y005457D01*
X012652Y005457D01*
X012483Y005388D01*
X012355Y005259D01*
X012285Y005091D01*
X012285Y004909D01*
X012355Y004741D01*
X012483Y004612D01*
X012652Y004543D01*
X013348Y004543D01*
X013517Y004612D01*
X013645Y004741D01*
X013715Y005009D02*
X026972Y005009D01*
X026972Y005247D02*
X013650Y005247D01*
X013508Y005592D02*
X013441Y005558D01*
X013369Y005534D01*
X013295Y005523D01*
X013000Y005523D01*
X013000Y006000D01*
X013000Y006000D01*
X013000Y006477D01*
X012705Y006477D01*
X012631Y006466D01*
X012559Y006442D01*
X012492Y006408D01*
X012431Y006364D01*
X012378Y006311D01*
X012334Y006250D01*
X012300Y006183D01*
X012277Y006112D01*
X012265Y006038D01*
X012265Y006000D01*
X013000Y006000D01*
X013735Y006000D01*
X013735Y006038D01*
X013723Y006112D01*
X013700Y006183D01*
X013666Y006250D01*
X013622Y006311D01*
X013569Y006364D01*
X013508Y006408D01*
X013441Y006442D01*
X013369Y006466D01*
X013295Y006477D01*
X013000Y006477D01*
X013000Y006000D01*
X013000Y006000D01*
X013000Y006000D01*
X013000Y006000D01*
X013735Y006000D01*
X013735Y005962D01*
X013723Y005888D01*
X013700Y005817D01*
X013666Y005750D01*
X013622Y005689D01*
X013569Y005636D01*
X013508Y005592D01*
X013647Y005724D02*
X026972Y005724D01*
X026972Y005486D02*
X009126Y005486D01*
X009099Y005503D02*
X009281Y005579D01*
X009421Y005719D01*
X009497Y005901D01*
X009497Y006099D01*
X009421Y006281D01*
X009281Y006421D01*
X009099Y006497D01*
X008901Y006497D01*
X008719Y006421D01*
X008579Y006281D01*
X008503Y006099D01*
X008503Y005901D01*
X008579Y005719D01*
X008719Y005579D01*
X008901Y005503D01*
X009099Y005503D01*
X008874Y005486D02*
X002126Y005486D01*
X002099Y005503D02*
X002281Y005579D01*
X002421Y005719D01*
X002497Y005901D01*
X002497Y006099D01*
X002421Y006281D01*
X002281Y006421D01*
X002099Y006497D01*
X001901Y006497D01*
X001719Y006421D01*
X001579Y006281D01*
X001503Y006099D01*
X001503Y005901D01*
X001579Y005719D01*
X001719Y005579D01*
X001901Y005503D01*
X002099Y005503D01*
X001874Y005486D02*
X-001480Y005486D01*
X-001480Y005724D02*
X001577Y005724D01*
X001503Y005963D02*
X-001480Y005963D01*
X-001480Y006201D02*
X001545Y006201D01*
X001763Y006440D02*
X-001480Y006440D01*
X-001480Y006678D02*
X001619Y006678D01*
X001579Y006719D02*
X001719Y006579D01*
X001901Y006503D01*
X002099Y006503D01*
X002281Y006579D01*
X002421Y006719D01*
X002497Y006901D01*
X002497Y007099D01*
X002421Y007281D01*
X002281Y007421D01*
X002107Y007494D01*
X002121Y007496D01*
X002198Y007521D01*
X002271Y007558D01*
X002337Y007606D01*
X002394Y007663D01*
X002442Y007729D01*
X002479Y007802D01*
X002504Y007879D01*
X002517Y007959D01*
X002517Y008000D01*
X002517Y008041D01*
X002504Y008121D01*
X002479Y008198D01*
X002442Y008271D01*
X002394Y008337D01*
X002337Y008394D01*
X002271Y008442D01*
X002198Y008479D01*
X002121Y008504D01*
X002107Y008506D01*
X002281Y008579D01*
X002421Y008719D01*
X002497Y008901D01*
X002497Y009099D01*
X002421Y009281D01*
X002281Y009421D01*
X002099Y009497D01*
X001901Y009497D01*
X001719Y009421D01*
X001579Y009281D01*
X001503Y009099D01*
X001503Y008901D01*
X001579Y008719D01*
X001719Y008579D01*
X001893Y008506D01*
X001879Y008504D01*
X001802Y008479D01*
X001729Y008442D01*
X001663Y008394D01*
X001606Y008337D01*
X001558Y008271D01*
X001521Y008198D01*
X001496Y008121D01*
X001483Y008041D01*
X001483Y008000D01*
X001483Y007959D01*
X001496Y007879D01*
X001521Y007802D01*
X001558Y007729D01*
X001606Y007663D01*
X001663Y007606D01*
X001729Y007558D01*
X001802Y007521D01*
X001879Y007496D01*
X001893Y007494D01*
X001719Y007421D01*
X001579Y007281D01*
X001503Y007099D01*
X001503Y006901D01*
X001579Y006719D01*
X001503Y006917D02*
X-001480Y006917D01*
X-001480Y007155D02*
X001526Y007155D01*
X001691Y007394D02*
X-001480Y007394D01*
X-001480Y007632D02*
X001637Y007632D01*
X001499Y007871D02*
X-001480Y007871D01*
X-001480Y008109D02*
X001494Y008109D01*
X001483Y008000D02*
X002000Y008000D01*
X002517Y008000D01*
X002000Y008000D01*
X002000Y008000D01*
X002000Y008000D01*
X001483Y008000D01*
X001617Y008348D02*
X-001480Y008348D01*
X-001480Y008586D02*
X001711Y008586D01*
X001535Y008825D02*
X-001480Y008825D01*
X-001480Y009063D02*
X001503Y009063D01*
X001599Y009302D02*
X-001480Y009302D01*
X-001480Y009540D02*
X001812Y009540D01*
X001901Y009503D02*
X002099Y009503D01*
X002281Y009579D01*
X002421Y009719D01*
X002497Y009901D01*
X002497Y010099D01*
X002421Y010281D01*
X002281Y010421D01*
X002099Y010497D01*
X001901Y010497D01*
X001719Y010421D01*
X001579Y010281D01*
X001503Y010099D01*
X001503Y009901D01*
X001579Y009719D01*
X001719Y009579D01*
X001901Y009503D01*
X002188Y009540D02*
X008812Y009540D01*
X008901Y009503D02*
X008719Y009579D01*
X008579Y009719D01*
X008503Y009901D01*
X008503Y010099D01*
X008579Y010281D01*
X008719Y010421D01*
X008901Y010497D01*
X009099Y010497D01*
X009281Y010421D01*
X009421Y010281D01*
X009497Y010099D01*
X009497Y009901D01*
X009421Y009719D01*
X009281Y009579D01*
X009099Y009503D01*
X008901Y009503D01*
X008901Y009497D02*
X008719Y009421D01*
X008579Y009281D01*
X008503Y009099D01*
X008503Y008901D01*
X008579Y008719D01*
X008719Y008579D01*
X008893Y008506D01*
X008879Y008504D01*
X008802Y008479D01*
X008729Y008442D01*
X008663Y008394D01*
X008606Y008337D01*
X008558Y008271D01*
X008521Y008198D01*
X008496Y008121D01*
X008483Y008041D01*
X008483Y008000D01*
X008483Y007959D01*
X008496Y007879D01*
X008521Y007802D01*
X008558Y007729D01*
X008606Y007663D01*
X008663Y007606D01*
X008729Y007558D01*
X008802Y007521D01*
X008879Y007496D01*
X008893Y007494D01*
X008719Y007421D01*
X008579Y007281D01*
X008503Y007099D01*
X008503Y006901D01*
X008579Y006719D01*
X008719Y006579D01*
X008901Y006503D01*
X009099Y006503D01*
X009281Y006579D01*
X009421Y006719D01*
X009497Y006901D01*
X009497Y007099D01*
X009421Y007281D01*
X009281Y007421D01*
X009107Y007494D01*
X009121Y007496D01*
X009198Y007521D01*
X009271Y007558D01*
X009337Y007606D01*
X009394Y007663D01*
X009442Y007729D01*
X009479Y007802D01*
X009504Y007879D01*
X009517Y007959D01*
X009517Y008000D01*
X009517Y008041D01*
X009504Y008121D01*
X009479Y008198D01*
X009442Y008271D01*
X009394Y008337D01*
X009337Y008394D01*
X009271Y008442D01*
X009198Y008479D01*
X009121Y008504D01*
X009107Y008506D01*
X009281Y008579D01*
X009421Y008719D01*
X009497Y008901D01*
X009497Y009099D01*
X009421Y009281D01*
X009281Y009421D01*
X009099Y009497D01*
X008901Y009497D01*
X009188Y009540D02*
X010220Y009540D01*
X010220Y009302D02*
X009401Y009302D01*
X009497Y009063D02*
X010220Y009063D01*
X010220Y008825D02*
X009465Y008825D01*
X009289Y008586D02*
X010220Y008586D01*
X010220Y008348D02*
X009383Y008348D01*
X009506Y008109D02*
X010220Y008109D01*
X010220Y007871D02*
X009501Y007871D01*
X009517Y008000D02*
X009000Y008000D01*
X009517Y008000D01*
X009363Y007632D02*
X010220Y007632D01*
X010220Y007444D02*
X010263Y007341D01*
X010763Y006841D01*
X010841Y006763D01*
X010944Y006720D01*
X012376Y006720D01*
X012483Y006612D01*
X012652Y006543D01*
X013348Y006543D01*
X013517Y006612D01*
X013645Y006741D01*
X013715Y006909D01*
X013715Y007091D01*
X013645Y007259D01*
X013517Y007388D01*
X013348Y007457D01*
X012652Y007457D01*
X012483Y007388D01*
X012376Y007280D01*
X011116Y007280D01*
X010780Y007616D01*
X010780Y008324D01*
X011263Y007841D01*
X011341Y007763D01*
X011444Y007720D01*
X012376Y007720D01*
X012483Y007612D01*
X012652Y007543D01*
X013348Y007543D01*
X013517Y007612D01*
X013645Y007741D01*
X013715Y007909D01*
X013715Y008091D01*
X013645Y008259D01*
X013517Y008388D01*
X013348Y008457D01*
X012652Y008457D01*
X012483Y008388D01*
X012376Y008280D01*
X011616Y008280D01*
X011280Y008616D01*
X011280Y009324D01*
X011763Y008841D01*
X011841Y008763D01*
X011944Y008720D01*
X012376Y008720D01*
X012483Y008612D01*
X012652Y008543D01*
X013348Y008543D01*
X013517Y008612D01*
X013645Y008741D01*
X013715Y008909D01*
X013715Y009091D01*
X013645Y009259D01*
X013517Y009388D01*
X013348Y009457D01*
X012652Y009457D01*
X012483Y009388D01*
X012376Y009280D01*
X012116Y009280D01*
X011780Y009616D01*
X011780Y015556D01*
X011737Y015659D01*
X011659Y015737D01*
X011203Y016193D01*
X011655Y016646D01*
X011655Y016902D01*
X010898Y016902D01*
X010898Y017098D01*
X010702Y017098D01*
X010702Y017855D01*
X010446Y017855D01*
X009945Y017354D01*
X009945Y017098D01*
X010702Y017098D01*
X010702Y016902D01*
X009945Y016902D01*
X009945Y016646D01*
X010311Y016280D01*
X009422Y016280D01*
X009421Y016281D01*
X009281Y016421D01*
X009099Y016497D01*
X008901Y016497D01*
X008719Y016421D01*
X008579Y016281D01*
X008503Y016099D01*
X008503Y015901D01*
X008579Y015719D01*
X008719Y015579D01*
X008901Y015503D01*
X009099Y015503D01*
X009281Y015579D01*
X009421Y015719D01*
X009422Y015720D01*
X010884Y015720D01*
X011220Y015384D01*
X011220Y014676D01*
X011159Y014737D01*
X010659Y015237D01*
X010556Y015280D01*
X009422Y015280D01*
X009421Y015281D01*
X009281Y015421D01*
X009099Y015497D01*
X008901Y015497D01*
X008719Y015421D01*
X008579Y015281D01*
X008503Y015099D01*
X008503Y014901D01*
X008579Y014719D01*
X008719Y014579D01*
X008901Y014503D01*
X009099Y014503D01*
X009281Y014579D01*
X009421Y014719D01*
X009422Y014720D01*
X010384Y014720D01*
X010720Y014384D01*
X010720Y013676D01*
X010659Y013737D01*
X010159Y014237D01*
X010056Y014280D01*
X009422Y014280D01*
X009421Y014281D01*
X009281Y014421D01*
X009099Y014497D01*
X008901Y014497D01*
X008719Y014421D01*
X008579Y014281D01*
X008503Y014099D01*
X008503Y013901D01*
X008579Y013719D01*
X008719Y013579D01*
X008893Y013506D01*
X008879Y013504D01*
X008802Y013479D01*
X008729Y013442D01*
X008663Y013394D01*
X008606Y013337D01*
X008558Y013271D01*
X008521Y013198D01*
X008496Y013121D01*
X008483Y013041D01*
X008483Y013000D01*
X008483Y012959D01*
X008496Y012879D01*
X008521Y012802D01*
X008558Y012729D01*
X008606Y012663D01*
X008663Y012606D01*
X008729Y012558D01*
X008802Y012521D01*
X008879Y012496D01*
X008893Y012494D01*
X008719Y012421D01*
X008579Y012281D01*
X008503Y012099D01*
X008503Y011901D01*
X008579Y011719D01*
X008719Y011579D01*
X008901Y011503D01*
X009099Y011503D01*
X009281Y011579D01*
X009421Y011719D01*
X009497Y011901D01*
X009497Y012099D01*
X009421Y012281D01*
X009281Y012421D01*
X009107Y012494D01*
X009121Y012496D01*
X009198Y012521D01*
X009271Y012558D01*
X009337Y012606D01*
X009394Y012663D01*
X009442Y012729D01*
X009479Y012802D01*
X009504Y012879D01*
X009517Y012959D01*
X009517Y013000D01*
X009517Y013041D01*
X009504Y013121D01*
X009479Y013198D01*
X009442Y013271D01*
X009394Y013337D01*
X009337Y013394D01*
X009271Y013442D01*
X009198Y013479D01*
X009121Y013504D01*
X009107Y013506D01*
X009281Y013579D01*
X009421Y013719D01*
X009422Y013720D01*
X009884Y013720D01*
X010220Y013384D01*
X010220Y007444D01*
X010241Y007394D02*
X009309Y007394D01*
X009474Y007155D02*
X010449Y007155D01*
X010688Y006917D02*
X009497Y006917D01*
X009381Y006678D02*
X012418Y006678D01*
X012553Y006440D02*
X009237Y006440D01*
X009455Y006201D02*
X012309Y006201D01*
X012265Y006000D02*
X012265Y005962D01*
X012277Y005888D01*
X012300Y005817D01*
X012334Y005750D01*
X012378Y005689D01*
X012431Y005636D01*
X012492Y005592D01*
X012559Y005558D01*
X012631Y005534D01*
X012705Y005523D01*
X013000Y005523D01*
X013000Y006000D01*
X012265Y006000D01*
X012265Y005963D02*
X009497Y005963D01*
X009423Y005724D02*
X012353Y005724D01*
X012350Y005247D02*
X009435Y005247D01*
X009497Y005009D02*
X012285Y005009D01*
X012343Y004770D02*
X009443Y004770D01*
X008557Y004770D02*
X002443Y004770D01*
X002497Y005009D02*
X008503Y005009D01*
X008565Y005247D02*
X002435Y005247D01*
X002423Y005724D02*
X008577Y005724D01*
X008503Y005963D02*
X002497Y005963D01*
X002455Y006201D02*
X008545Y006201D01*
X008763Y006440D02*
X002237Y006440D01*
X002381Y006678D02*
X008619Y006678D01*
X008503Y006917D02*
X002497Y006917D01*
X002474Y007155D02*
X008526Y007155D01*
X008691Y007394D02*
X002309Y007394D01*
X002363Y007632D02*
X008637Y007632D01*
X008499Y007871D02*
X002501Y007871D01*
X002506Y008109D02*
X008494Y008109D01*
X008483Y008000D02*
X009000Y008000D01*
X009000Y008000D01*
X009000Y008000D01*
X008483Y008000D01*
X008617Y008348D02*
X002383Y008348D01*
X002289Y008586D02*
X008711Y008586D01*
X008535Y008825D02*
X002465Y008825D01*
X002497Y009063D02*
X008503Y009063D01*
X008599Y009302D02*
X002401Y009302D01*
X002446Y009779D02*
X008554Y009779D01*
X008503Y010017D02*
X002497Y010017D01*
X002432Y010256D02*
X008568Y010256D01*
X008719Y010579D02*
X008901Y010503D01*
X009099Y010503D01*
X009281Y010579D01*
X009421Y010719D01*
X009497Y010901D01*
X009497Y011099D01*
X009421Y011281D01*
X009281Y011421D01*
X009099Y011497D01*
X008901Y011497D01*
X008719Y011421D01*
X008579Y011281D01*
X008503Y011099D01*
X008503Y010901D01*
X008579Y010719D01*
X008719Y010579D01*
X008894Y010494D02*
X002106Y010494D01*
X002099Y010503D02*
X002281Y010579D01*
X002421Y010719D01*
X002497Y010901D01*
X002497Y011099D01*
X002421Y011281D01*
X002281Y011421D01*
X002099Y011497D01*
X001901Y011497D01*
X001719Y011421D01*
X001579Y011281D01*
X001503Y011099D01*
X001503Y010901D01*
X001579Y010719D01*
X001719Y010579D01*
X001901Y010503D01*
X002099Y010503D01*
X001894Y010494D02*
X-001480Y010494D01*
X-001480Y010256D02*
X001568Y010256D01*
X001503Y010017D02*
X-001480Y010017D01*
X-001480Y009779D02*
X001554Y009779D01*
X001573Y010733D02*
X-001480Y010733D01*
X-001480Y010971D02*
X001503Y010971D01*
X001549Y011210D02*
X-001480Y011210D01*
X-001480Y011448D02*
X001783Y011448D01*
X001901Y011503D02*
X002099Y011503D01*
X002281Y011579D01*
X002421Y011719D01*
X002497Y011901D01*
X002497Y012099D01*
X002421Y012281D01*
X002281Y012421D01*
X002107Y012494D01*
X002121Y012496D01*
X002198Y012521D01*
X002271Y012558D01*
X002337Y012606D01*
X002394Y012663D01*
X002442Y012729D01*
X002479Y012802D01*
X002504Y012879D01*
X002517Y012959D01*
X002517Y013000D01*
X002517Y013041D01*
X002504Y013121D01*
X002479Y013198D01*
X002442Y013271D01*
X002394Y013337D01*
X002337Y013394D01*
X002271Y013442D01*
X002198Y013479D01*
X002121Y013504D01*
X002107Y013506D01*
X002281Y013579D01*
X002421Y013719D01*
X002497Y013901D01*
X002497Y014099D01*
X002421Y014281D01*
X002281Y014421D01*
X002099Y014497D01*
X001901Y014497D01*
X001719Y014421D01*
X001579Y014281D01*
X001503Y014099D01*
X001503Y013901D01*
X001579Y013719D01*
X001719Y013579D01*
X001893Y013506D01*
X001879Y013504D01*
X001802Y013479D01*
X001729Y013442D01*
X001663Y013394D01*
X001606Y013337D01*
X001558Y013271D01*
X001521Y013198D01*
X001496Y013121D01*
X001483Y013041D01*
X001483Y013000D01*
X001483Y012959D01*
X001496Y012879D01*
X001521Y012802D01*
X001558Y012729D01*
X001606Y012663D01*
X001663Y012606D01*
X001729Y012558D01*
X001802Y012521D01*
X001879Y012496D01*
X001893Y012494D01*
X001719Y012421D01*
X001579Y012281D01*
X001503Y012099D01*
X001503Y011901D01*
X001579Y011719D01*
X001719Y011579D01*
X001901Y011503D01*
X002217Y011448D02*
X008783Y011448D01*
X008611Y011687D02*
X002389Y011687D01*
X002497Y011925D02*
X008503Y011925D01*
X008530Y012164D02*
X002470Y012164D01*
X002301Y012402D02*
X008699Y012402D01*
X008629Y012641D02*
X002371Y012641D01*
X002504Y012879D02*
X008496Y012879D01*
X008483Y013000D02*
X009000Y013000D01*
X009517Y013000D01*
X009000Y013000D01*
X009000Y013000D01*
X009000Y013000D01*
X008483Y013000D01*
X008495Y013118D02*
X002505Y013118D01*
X002517Y013000D02*
X002000Y013000D01*
X002000Y013000D01*
X002517Y013000D01*
X002375Y013356D02*
X008625Y013356D01*
X008703Y013595D02*
X002297Y013595D01*
X002469Y013833D02*
X004771Y013833D01*
X004841Y013763D02*
X004944Y013720D01*
X006602Y013720D01*
X006602Y013719D01*
X006719Y013602D01*
X007281Y013602D01*
X007398Y013719D01*
X007398Y014281D01*
X007281Y014398D01*
X006719Y014398D01*
X006602Y014281D01*
X006602Y014280D01*
X005116Y014280D01*
X003237Y016159D01*
X003202Y016193D01*
X003202Y016902D01*
X003398Y016902D01*
X003398Y017098D01*
X004155Y017098D01*
X004155Y017354D01*
X003654Y017855D01*
X003398Y017855D01*
X003398Y017098D01*
X003202Y017098D01*
X003202Y017855D01*
X002946Y017855D01*
X002445Y017354D01*
X002445Y017224D01*
X002421Y017281D01*
X002281Y017421D01*
X002107Y017494D01*
X002121Y017496D01*
X002198Y017521D01*
X002271Y017558D01*
X002337Y017606D01*
X002394Y017663D01*
X002442Y017729D01*
X002479Y017802D01*
X002504Y017879D01*
X002517Y017959D01*
X002517Y018000D01*
X002517Y018041D01*
X002504Y018121D01*
X002479Y018198D01*
X002442Y018271D01*
X002394Y018337D01*
X002337Y018394D01*
X002271Y018442D01*
X002198Y018479D01*
X002121Y018504D01*
X002107Y018506D01*
X002281Y018579D01*
X002421Y018719D01*
X002497Y018901D01*
X002497Y019099D01*
X002421Y019281D01*
X002281Y019421D01*
X002099Y019497D01*
X001901Y019497D01*
X001719Y019421D01*
X001579Y019281D01*
X001503Y019099D01*
X001503Y018901D01*
X001579Y018719D01*
X001719Y018579D01*
X001893Y018506D01*
X001879Y018504D01*
X001802Y018479D01*
X001729Y018442D01*
X001663Y018394D01*
X001606Y018337D01*
X001558Y018271D01*
X001521Y018198D01*
X001496Y018121D01*
X001483Y018041D01*
X001483Y018000D01*
X001483Y017959D01*
X001496Y017879D01*
X001521Y017802D01*
X001558Y017729D01*
X001606Y017663D01*
X001663Y017606D01*
X001729Y017558D01*
X001802Y017521D01*
X001879Y017496D01*
X001893Y017494D01*
X001719Y017421D01*
X001579Y017281D01*
X001503Y017099D01*
X001503Y016901D01*
X001579Y016719D01*
X001719Y016579D01*
X001901Y016503D01*
X002099Y016503D01*
X002281Y016579D01*
X002421Y016719D01*
X002445Y016776D01*
X002445Y016646D01*
X002811Y016280D01*
X002422Y016280D01*
X002421Y016281D01*
X002281Y016421D01*
X002099Y016497D01*
X001901Y016497D01*
X001719Y016421D01*
X001579Y016281D01*
X001503Y016099D01*
X001503Y015901D01*
X001579Y015719D01*
X001719Y015579D01*
X001901Y015503D01*
X002099Y015503D01*
X002281Y015579D01*
X002421Y015719D01*
X002422Y015720D01*
X002884Y015720D01*
X004841Y013763D01*
X004533Y014072D02*
X002497Y014072D01*
X002393Y014310D02*
X004294Y014310D01*
X004056Y014549D02*
X002208Y014549D01*
X002281Y014579D02*
X002421Y014719D01*
X002497Y014901D01*
X002497Y015099D01*
X002421Y015281D01*
X002281Y015421D01*
X002099Y015497D01*
X001901Y015497D01*
X001719Y015421D01*
X001579Y015281D01*
X001503Y015099D01*
X001503Y014901D01*
X001579Y014719D01*
X001719Y014579D01*
X001901Y014503D01*
X002099Y014503D01*
X002281Y014579D01*
X002450Y014787D02*
X003817Y014787D01*
X003579Y015026D02*
X002497Y015026D01*
X002428Y015264D02*
X003340Y015264D01*
X003102Y015503D02*
X-001480Y015503D01*
X-001480Y015741D02*
X001569Y015741D01*
X001503Y015980D02*
X-001480Y015980D01*
X-001480Y016218D02*
X001553Y016218D01*
X001804Y016457D02*
X-001480Y016457D01*
X-001480Y016695D02*
X001602Y016695D01*
X001503Y016934D02*
X-001480Y016934D01*
X-001480Y017172D02*
X001533Y017172D01*
X001708Y017411D02*
X-001480Y017411D01*
X-001480Y017649D02*
X001620Y017649D01*
X001495Y017888D02*
X-001480Y017888D01*
X-001480Y018126D02*
X001497Y018126D01*
X001483Y018000D02*
X002000Y018000D01*
X002517Y018000D01*
X002000Y018000D01*
X002000Y018000D01*
X002000Y018000D01*
X001483Y018000D01*
X001634Y018365D02*
X-000295Y018365D01*
X-000705Y018365D02*
X-001480Y018365D01*
X-001480Y018603D02*
X-001229Y018603D01*
X-001448Y018842D02*
X-001480Y018842D01*
X000229Y018603D02*
X001694Y018603D01*
X001528Y018842D02*
X000448Y018842D01*
X000578Y019080D02*
X001503Y019080D01*
X001616Y019319D02*
X000642Y019319D01*
X000650Y019557D02*
X001771Y019557D01*
X001547Y019796D02*
X000611Y019796D01*
X000519Y020034D02*
X001503Y020034D01*
X001575Y020273D02*
X000354Y020273D01*
X002229Y019557D02*
X003643Y019557D01*
X003553Y019796D02*
X002453Y019796D01*
X002497Y020034D02*
X003553Y020034D01*
X003615Y020273D02*
X002425Y020273D01*
X002384Y019319D02*
X003821Y019319D01*
X003797Y019080D02*
X002497Y019080D01*
X002472Y018842D02*
X003730Y018842D01*
X003730Y018603D02*
X002306Y018603D01*
X002366Y018365D02*
X003825Y018365D01*
X004022Y018126D02*
X002503Y018126D01*
X002505Y017888D02*
X005990Y017888D01*
X006030Y017928D02*
X005946Y017844D01*
X005946Y017421D01*
X005754Y017612D01*
X005246Y017612D01*
X004888Y017254D01*
X004888Y016746D01*
X005246Y016388D01*
X005754Y016388D01*
X005946Y016579D01*
X005946Y015952D01*
X005984Y015913D01*
X005946Y015875D01*
X005946Y014967D01*
X006030Y014883D01*
X006938Y014883D01*
X007023Y014967D01*
X007023Y015875D01*
X006985Y015913D01*
X007023Y015952D01*
X007023Y016468D01*
X007346Y016145D01*
X007602Y016145D01*
X007602Y016902D01*
X007798Y016902D01*
X007798Y016145D01*
X008054Y016145D01*
X008555Y016646D01*
X008555Y016776D01*
X008579Y016719D01*
X008719Y016579D01*
X008901Y016503D01*
X009099Y016503D01*
X009281Y016579D01*
X009421Y016719D01*
X009497Y016901D01*
X009497Y017099D01*
X009421Y017281D01*
X009281Y017421D01*
X009107Y017494D01*
X009121Y017496D01*
X009198Y017521D01*
X009271Y017558D01*
X009337Y017606D01*
X009394Y017663D01*
X009442Y017729D01*
X009479Y017802D01*
X009504Y017879D01*
X009517Y017959D01*
X009517Y018000D01*
X009517Y018041D01*
X009504Y018121D01*
X009479Y018198D01*
X009442Y018271D01*
X009394Y018337D01*
X009337Y018394D01*
X009271Y018442D01*
X009198Y018479D01*
X009121Y018504D01*
X009107Y018506D01*
X009281Y018579D01*
X009421Y018719D01*
X009497Y018901D01*
X009497Y019099D01*
X009421Y019281D01*
X009281Y019421D01*
X009099Y019497D01*
X008901Y019497D01*
X008719Y019421D01*
X008579Y019281D01*
X008503Y019099D01*
X008503Y018901D01*
X008579Y018719D01*
X008719Y018579D01*
X008893Y018506D01*
X008879Y018504D01*
X008802Y018479D01*
X008729Y018442D01*
X008663Y018394D01*
X008606Y018337D01*
X008558Y018271D01*
X008521Y018198D01*
X008496Y018121D01*
X008483Y018041D01*
X008483Y018000D01*
X008483Y017959D01*
X008496Y017879D01*
X008521Y017802D01*
X008558Y017729D01*
X008606Y017663D01*
X008663Y017606D01*
X008729Y017558D01*
X008802Y017521D01*
X008879Y017496D01*
X008893Y017494D01*
X008719Y017421D01*
X008579Y017281D01*
X008555Y017224D01*
X008555Y017354D01*
X008054Y017855D01*
X007798Y017855D01*
X007798Y017098D01*
X007602Y017098D01*
X007602Y017855D01*
X007346Y017855D01*
X007023Y017532D01*
X007023Y017844D01*
X006938Y017928D01*
X006030Y017928D01*
X005932Y018126D02*
X005068Y018126D01*
X005044Y017411D02*
X004099Y017411D01*
X004155Y017172D02*
X004888Y017172D01*
X004888Y016934D02*
X003398Y016934D01*
X003398Y016902D02*
X004155Y016902D01*
X004155Y016646D01*
X003654Y016145D01*
X003398Y016145D01*
X003398Y016902D01*
X003398Y016695D02*
X003202Y016695D01*
X003202Y016457D02*
X003398Y016457D01*
X003398Y016218D02*
X003202Y016218D01*
X003416Y015980D02*
X005946Y015980D01*
X005946Y016218D02*
X003727Y016218D01*
X003966Y016457D02*
X005177Y016457D01*
X004939Y016695D02*
X004155Y016695D01*
X003398Y017172D02*
X003202Y017172D01*
X003202Y017411D02*
X003398Y017411D01*
X003398Y017649D02*
X003202Y017649D01*
X003860Y017649D02*
X005946Y017649D01*
X006979Y017888D02*
X008495Y017888D01*
X008483Y018000D02*
X009000Y018000D01*
X009517Y018000D01*
X009000Y018000D01*
X009000Y018000D01*
X009000Y018000D01*
X008483Y018000D01*
X008497Y018126D02*
X006978Y018126D01*
X007175Y018365D02*
X008634Y018365D01*
X008694Y018603D02*
X007270Y018603D01*
X007270Y018842D02*
X008528Y018842D01*
X008503Y019080D02*
X007203Y019080D01*
X007179Y019319D02*
X008616Y019319D01*
X008771Y019557D02*
X007357Y019557D01*
X007447Y019796D02*
X008547Y019796D01*
X008503Y020034D02*
X007447Y020034D01*
X007385Y020273D02*
X008575Y020273D01*
X009425Y020273D02*
X012145Y020273D01*
X012145Y019796D02*
X009453Y019796D01*
X009497Y020034D02*
X012902Y020034D01*
X013098Y020034D02*
X019902Y020034D01*
X020098Y020034D02*
X024981Y020034D01*
X024889Y019796D02*
X020855Y019796D01*
X020766Y019557D02*
X024850Y019557D01*
X024858Y019319D02*
X020528Y019319D01*
X020098Y019319D02*
X019902Y019319D01*
X019902Y019557D02*
X020098Y019557D01*
X020098Y019796D02*
X019902Y019796D01*
X019472Y019319D02*
X013528Y019319D01*
X013766Y019557D02*
X019234Y019557D01*
X019145Y019796D02*
X013855Y019796D01*
X013855Y020273D02*
X019145Y020273D01*
X020855Y020273D02*
X025146Y020273D01*
X024922Y019080D02*
X009497Y019080D01*
X009472Y018842D02*
X025052Y018842D01*
X025271Y018603D02*
X009306Y018603D01*
X009366Y018365D02*
X025795Y018365D01*
X026205Y018365D02*
X026972Y018365D01*
X026972Y018603D02*
X026729Y018603D01*
X026948Y018842D02*
X026972Y018842D01*
X026972Y018126D02*
X009503Y018126D01*
X009505Y017888D02*
X026972Y017888D01*
X026972Y017649D02*
X022760Y017649D01*
X022554Y017855D02*
X023055Y017354D01*
X023055Y017098D01*
X022298Y017098D01*
X022298Y016902D01*
X023055Y016902D01*
X023055Y016646D01*
X022554Y016145D01*
X022298Y016145D01*
X022298Y016902D01*
X022102Y016902D01*
X022102Y016145D01*
X021846Y016145D01*
X021345Y016646D01*
X021345Y016902D01*
X022102Y016902D01*
X022102Y017098D01*
X022102Y017855D01*
X021846Y017855D01*
X021345Y017354D01*
X021345Y017098D01*
X022102Y017098D01*
X022298Y017098D01*
X022298Y017855D01*
X022554Y017855D01*
X022298Y017649D02*
X022102Y017649D01*
X022102Y017411D02*
X022298Y017411D01*
X022298Y017172D02*
X022102Y017172D01*
X022102Y016934D02*
X020612Y016934D01*
X020612Y016746D02*
X020254Y016388D01*
X019746Y016388D01*
X019388Y016746D01*
X019388Y017254D01*
X019746Y017612D01*
X020254Y017612D01*
X020612Y017254D01*
X020612Y016746D01*
X020561Y016695D02*
X021345Y016695D01*
X021534Y016457D02*
X020323Y016457D01*
X020612Y017172D02*
X021345Y017172D01*
X021401Y017411D02*
X020456Y017411D01*
X019544Y017411D02*
X018599Y017411D01*
X018655Y017354D02*
X018154Y017855D01*
X017898Y017855D01*
X017898Y017098D01*
X018655Y017098D01*
X018655Y017354D01*
X018655Y017172D02*
X019388Y017172D01*
X019388Y016934D02*
X017898Y016934D01*
X017898Y016902D02*
X017898Y017098D01*
X017702Y017098D01*
X017702Y017855D01*
X017446Y017855D01*
X016945Y017354D01*
X016945Y017098D01*
X017702Y017098D01*
X017702Y016902D01*
X017898Y016902D01*
X018655Y016902D01*
X018655Y016646D01*
X018154Y016145D01*
X017898Y016145D01*
X017898Y016902D01*
X017702Y016902D02*
X017702Y016145D01*
X017446Y016145D01*
X016945Y016646D01*
X016945Y016902D01*
X017702Y016902D01*
X017702Y016934D02*
X015298Y016934D01*
X015298Y016902D02*
X015298Y017098D01*
X016055Y017098D01*
X016055Y017354D01*
X015554Y017855D01*
X015298Y017855D01*
X015298Y017098D01*
X015102Y017098D01*
X015102Y017855D01*
X014846Y017855D01*
X014345Y017354D01*
X014345Y017098D01*
X015102Y017098D01*
X015102Y016902D01*
X015298Y016902D01*
X016055Y016902D01*
X016055Y016646D01*
X015554Y016145D01*
X015298Y016145D01*
X015298Y016902D01*
X015102Y016902D02*
X015102Y016145D01*
X014846Y016145D01*
X014345Y016646D01*
X014345Y016902D01*
X015102Y016902D01*
X015102Y016934D02*
X013612Y016934D01*
X013612Y016746D02*
X013254Y016388D01*
X012746Y016388D01*
X012388Y016746D01*
X012388Y017254D01*
X012746Y017612D01*
X013254Y017612D01*
X013612Y017254D01*
X013612Y016746D01*
X013561Y016695D02*
X014345Y016695D01*
X014534Y016457D02*
X013323Y016457D01*
X013612Y017172D02*
X014345Y017172D01*
X014401Y017411D02*
X013456Y017411D01*
X012544Y017411D02*
X011599Y017411D01*
X011655Y017354D02*
X011154Y017855D01*
X010898Y017855D01*
X010898Y017098D01*
X011655Y017098D01*
X011655Y017354D01*
X011655Y017172D02*
X012388Y017172D01*
X012388Y016934D02*
X010898Y016934D01*
X010702Y016934D02*
X009497Y016934D01*
X009467Y017172D02*
X009945Y017172D01*
X010001Y017411D02*
X009292Y017411D01*
X009380Y017649D02*
X010240Y017649D01*
X010702Y017649D02*
X010898Y017649D01*
X010898Y017411D02*
X010702Y017411D01*
X010702Y017172D02*
X010898Y017172D01*
X011360Y017649D02*
X014640Y017649D01*
X015102Y017649D02*
X015298Y017649D01*
X015298Y017411D02*
X015102Y017411D01*
X015102Y017172D02*
X015298Y017172D01*
X015298Y016695D02*
X015102Y016695D01*
X015102Y016457D02*
X015298Y016457D01*
X015298Y016218D02*
X015102Y016218D01*
X014773Y016218D02*
X011227Y016218D01*
X011416Y015980D02*
X026972Y015980D01*
X026972Y016218D02*
X022627Y016218D01*
X022298Y016218D02*
X022102Y016218D01*
X022102Y016457D02*
X022298Y016457D01*
X022298Y016695D02*
X022102Y016695D01*
X022298Y016934D02*
X026972Y016934D01*
X026972Y017172D02*
X023055Y017172D01*
X022999Y017411D02*
X026972Y017411D01*
X026972Y016695D02*
X023055Y016695D01*
X022866Y016457D02*
X026972Y016457D01*
X026972Y015741D02*
X011655Y015741D01*
X011780Y015503D02*
X026972Y015503D01*
X026972Y015264D02*
X011780Y015264D01*
X011780Y015026D02*
X026972Y015026D01*
X026972Y014787D02*
X011780Y014787D01*
X011780Y014549D02*
X026972Y014549D01*
X026972Y014310D02*
X011780Y014310D01*
X011780Y014072D02*
X026972Y014072D01*
X026972Y013833D02*
X011780Y013833D01*
X011780Y013595D02*
X026972Y013595D01*
X026972Y013356D02*
X011780Y013356D01*
X011780Y013118D02*
X026972Y013118D01*
X026972Y012879D02*
X011780Y012879D01*
X011780Y012641D02*
X026972Y012641D01*
X026972Y012402D02*
X011780Y012402D01*
X011780Y012164D02*
X026972Y012164D01*
X026972Y011925D02*
X011780Y011925D01*
X011780Y011687D02*
X026972Y011687D01*
X026972Y011448D02*
X011780Y011448D01*
X011780Y011210D02*
X026972Y011210D01*
X026972Y010971D02*
X011780Y010971D01*
X011780Y010733D02*
X026972Y010733D01*
X026972Y010494D02*
X011780Y010494D01*
X011780Y010256D02*
X026972Y010256D01*
X026972Y010017D02*
X011780Y010017D01*
X011780Y009779D02*
X026972Y009779D01*
X026972Y009540D02*
X011856Y009540D01*
X012094Y009302D02*
X012397Y009302D01*
X012547Y008586D02*
X011310Y008586D01*
X011280Y008825D02*
X011780Y008825D01*
X011541Y009063D02*
X011280Y009063D01*
X011280Y009302D02*
X011303Y009302D01*
X011548Y008348D02*
X012443Y008348D01*
X012464Y007632D02*
X010780Y007632D01*
X010780Y007871D02*
X011234Y007871D01*
X010995Y008109D02*
X010780Y008109D01*
X011002Y007394D02*
X012497Y007394D01*
X013503Y007394D02*
X026972Y007394D01*
X026972Y007632D02*
X013536Y007632D01*
X013699Y007871D02*
X026972Y007871D01*
X026972Y008109D02*
X013708Y008109D01*
X013557Y008348D02*
X026972Y008348D01*
X026972Y008586D02*
X013453Y008586D01*
X013680Y008825D02*
X026972Y008825D01*
X026972Y009063D02*
X013715Y009063D01*
X013603Y009302D02*
X026972Y009302D01*
X026972Y007155D02*
X013688Y007155D01*
X013715Y006917D02*
X026972Y006917D01*
X026972Y006678D02*
X013582Y006678D01*
X013447Y006440D02*
X026972Y006440D01*
X026972Y006201D02*
X013691Y006201D01*
X013735Y005963D02*
X026972Y005963D01*
X026972Y002385D02*
X026741Y002385D01*
X026955Y002147D02*
X026972Y002147D01*
X021773Y016218D02*
X018227Y016218D01*
X017898Y016218D02*
X017702Y016218D01*
X017702Y016457D02*
X017898Y016457D01*
X017898Y016695D02*
X017702Y016695D01*
X017702Y017172D02*
X017898Y017172D01*
X017898Y017411D02*
X017702Y017411D01*
X017702Y017649D02*
X017898Y017649D01*
X018360Y017649D02*
X021640Y017649D01*
X019677Y016457D02*
X018466Y016457D01*
X018655Y016695D02*
X019439Y016695D01*
X017373Y016218D02*
X015627Y016218D01*
X015866Y016457D02*
X017134Y016457D01*
X016945Y016695D02*
X016055Y016695D01*
X016055Y017172D02*
X016945Y017172D01*
X017001Y017411D02*
X015999Y017411D01*
X015760Y017649D02*
X017240Y017649D01*
X013098Y019319D02*
X012902Y019319D01*
X012902Y019557D02*
X013098Y019557D01*
X013098Y019796D02*
X012902Y019796D01*
X012472Y019319D02*
X009384Y019319D01*
X009229Y019557D02*
X012234Y019557D01*
X012439Y016695D02*
X011655Y016695D01*
X011466Y016457D02*
X012677Y016457D01*
X011102Y015503D02*
X007023Y015503D01*
X007023Y015741D02*
X008569Y015741D01*
X008503Y015980D02*
X007023Y015980D01*
X007023Y016218D02*
X007273Y016218D01*
X007602Y016218D02*
X007798Y016218D01*
X007798Y016457D02*
X007602Y016457D01*
X007602Y016695D02*
X007798Y016695D01*
X007798Y017172D02*
X007602Y017172D01*
X007602Y017411D02*
X007798Y017411D01*
X007798Y017649D02*
X007602Y017649D01*
X007140Y017649D02*
X007023Y017649D01*
X007023Y016457D02*
X007034Y016457D01*
X005946Y016457D02*
X005823Y016457D01*
X005946Y015741D02*
X003655Y015741D01*
X003893Y015503D02*
X005946Y015503D01*
X005946Y015264D02*
X004132Y015264D01*
X004370Y015026D02*
X005946Y015026D01*
X006631Y014310D02*
X005086Y014310D01*
X004847Y014549D02*
X008792Y014549D01*
X008607Y014310D02*
X007369Y014310D01*
X007398Y014072D02*
X008503Y014072D01*
X008531Y013833D02*
X007398Y013833D01*
X007023Y015026D02*
X008503Y015026D01*
X008550Y014787D02*
X004609Y014787D01*
X007023Y015264D02*
X008572Y015264D01*
X008553Y016218D02*
X008127Y016218D01*
X008366Y016457D02*
X008804Y016457D01*
X008602Y016695D02*
X008555Y016695D01*
X009196Y016457D02*
X010134Y016457D01*
X009945Y016695D02*
X009398Y016695D01*
X008708Y017411D02*
X008499Y017411D01*
X008620Y017649D02*
X008260Y017649D01*
X010594Y015264D02*
X011220Y015264D01*
X011220Y015026D02*
X010870Y015026D01*
X011109Y014787D02*
X011220Y014787D01*
X010720Y014310D02*
X009393Y014310D01*
X009208Y014549D02*
X010556Y014549D01*
X010720Y014072D02*
X010324Y014072D01*
X010563Y013833D02*
X010720Y013833D01*
X010220Y013356D02*
X009375Y013356D01*
X009297Y013595D02*
X010010Y013595D01*
X010220Y013118D02*
X009505Y013118D01*
X009504Y012879D02*
X010220Y012879D01*
X010220Y012641D02*
X009371Y012641D01*
X009301Y012402D02*
X010220Y012402D01*
X010220Y012164D02*
X009470Y012164D01*
X009497Y011925D02*
X010220Y011925D01*
X010220Y011687D02*
X009389Y011687D01*
X009217Y011448D02*
X010220Y011448D01*
X010220Y011210D02*
X009451Y011210D01*
X009497Y010971D02*
X010220Y010971D01*
X010220Y010733D02*
X009427Y010733D01*
X009106Y010494D02*
X010220Y010494D01*
X010220Y010256D02*
X009432Y010256D01*
X009497Y010017D02*
X010220Y010017D01*
X010220Y009779D02*
X009446Y009779D01*
X008573Y010733D02*
X002427Y010733D01*
X002497Y010971D02*
X008503Y010971D01*
X008549Y011210D02*
X002451Y011210D01*
X001611Y011687D02*
X-001480Y011687D01*
X-001480Y011925D02*
X001503Y011925D01*
X001530Y012164D02*
X-001480Y012164D01*
X-001480Y012402D02*
X001699Y012402D01*
X001629Y012641D02*
X-001480Y012641D01*
X-001480Y012879D02*
X001496Y012879D01*
X001483Y013000D02*
X002000Y013000D01*
X002000Y013000D01*
X001483Y013000D01*
X001495Y013118D02*
X-001480Y013118D01*
X-001480Y013356D02*
X001625Y013356D01*
X001703Y013595D02*
X-001480Y013595D01*
X-001480Y013833D02*
X001531Y013833D01*
X001503Y014072D02*
X-001480Y014072D01*
X-001480Y014310D02*
X001607Y014310D01*
X001792Y014549D02*
X-001480Y014549D01*
X-001480Y014787D02*
X001550Y014787D01*
X001503Y015026D02*
X-001480Y015026D01*
X-001480Y015264D02*
X001572Y015264D01*
X002196Y016457D02*
X002634Y016457D01*
X002445Y016695D02*
X002398Y016695D01*
X002292Y017411D02*
X002501Y017411D01*
X002380Y017649D02*
X002740Y017649D01*
X013000Y006440D02*
X013000Y006440D01*
X013000Y006201D02*
X013000Y006201D01*
X013000Y005963D02*
X013000Y005963D01*
X013000Y005724D02*
X013000Y005724D01*
X009000Y003000D02*
X009000Y003000D01*
X009000Y003000D01*
X008483Y003000D01*
X009000Y003000D01*
X008646Y002624D02*
X002354Y002624D01*
X002318Y002385D02*
X008682Y002385D01*
X008523Y002147D02*
X002477Y002147D01*
X002497Y001908D02*
X008503Y001908D01*
X008628Y001670D02*
X002372Y001670D01*
X002258Y001431D02*
X004138Y001431D01*
X004079Y001372D02*
X004003Y001189D01*
X004003Y000992D01*
X004079Y000809D01*
X004219Y000669D01*
X004401Y000594D01*
X004599Y000594D01*
X004781Y000669D01*
X004921Y000809D01*
X004997Y000992D01*
X004997Y001189D01*
X004921Y001372D01*
X004781Y001512D01*
X004599Y001587D01*
X004401Y001587D01*
X004219Y001512D01*
X004079Y001372D01*
X004004Y001193D02*
X002458Y001193D01*
X002497Y000954D02*
X004019Y000954D01*
X004172Y000716D02*
X002418Y000716D01*
X002499Y002862D02*
X008501Y002862D01*
X008493Y003101D02*
X002507Y003101D01*
X002392Y003339D02*
X008608Y003339D01*
X008722Y003578D02*
X002278Y003578D01*
X002462Y003816D02*
X008538Y003816D01*
X008503Y004055D02*
X002497Y004055D01*
X002410Y004293D02*
X008590Y004293D01*
X008742Y001431D02*
X006862Y001431D01*
X006921Y001372D02*
X006781Y001512D01*
X006599Y001587D01*
X006401Y001587D01*
X006219Y001512D01*
X006079Y001372D01*
X006003Y001189D01*
X006003Y000992D01*
X006079Y000809D01*
X006219Y000669D01*
X006401Y000594D01*
X006599Y000594D01*
X006781Y000669D01*
X006921Y000809D01*
X006997Y000992D01*
X006997Y001189D01*
X006921Y001372D01*
X006996Y001193D02*
X008542Y001193D01*
X008503Y000954D02*
X006981Y000954D01*
X006828Y000716D02*
X008582Y000716D01*
X006172Y000716D02*
X005828Y000716D01*
X005781Y000669D02*
X005921Y000809D01*
X005997Y000992D01*
X005997Y001189D01*
X005921Y001372D01*
X005781Y001512D01*
X005599Y001587D01*
X005401Y001587D01*
X005219Y001512D01*
X005079Y001372D01*
X005003Y001189D01*
X005003Y000992D01*
X005079Y000809D01*
X005219Y000669D01*
X005401Y000594D01*
X005599Y000594D01*
X005781Y000669D01*
X005981Y000954D02*
X006019Y000954D01*
X006004Y001193D02*
X005996Y001193D01*
X005862Y001431D02*
X006138Y001431D01*
X005138Y001431D02*
X004862Y001431D01*
X004996Y001193D02*
X005004Y001193D01*
X005019Y000954D02*
X004981Y000954D01*
X004828Y000716D02*
X005172Y000716D01*
X001557Y004770D02*
X-001480Y004770D01*
X-001480Y005009D02*
X001503Y005009D01*
X001565Y005247D02*
X-001480Y005247D01*
D16*
X003500Y011500D03*
X004500Y011500D03*
X005500Y011500D03*
X007000Y014000D03*
X013500Y013500D03*
X014500Y013000D03*
X020500Y014000D03*
X021500Y013500D03*
D17*
X013000Y009000D02*
X012000Y009000D01*
X011500Y009500D01*
X011500Y015500D01*
X011000Y016000D01*
X009000Y016000D01*
X009000Y015000D02*
X010500Y015000D01*
X011000Y014500D01*
X011000Y008500D01*
X011500Y008000D01*
X013000Y008000D01*
X013000Y007000D02*
X011000Y007000D01*
X010500Y007500D01*
X010500Y013500D01*
X010000Y014000D01*
X009000Y014000D01*
X007000Y014000D02*
X005000Y014000D01*
X003000Y016000D01*
X002000Y016000D01*
M02*
