G75*
G70*
%OFA0B0*%
%FSLAX24Y24*%
%IPPOS*%
%LPD*%
%AMOC8*
5,1,8,0,0,1.08239X$1,22.5*
%
%ADD10C,0.0060*%
%ADD11C,0.0040*%
%ADD12C,0.0050*%
D10*
X011530Y001137D02*
X011637Y001030D01*
X011850Y001030D01*
X011957Y001137D01*
X011957Y001350D01*
X011744Y001350D01*
X011957Y001564D02*
X011850Y001671D01*
X011637Y001671D01*
X011530Y001564D01*
X011530Y001137D01*
X012175Y001030D02*
X012602Y001030D01*
X012388Y001030D02*
X012388Y001671D01*
X012175Y001457D01*
X012819Y001564D02*
X013033Y001350D01*
X013033Y001030D01*
X013033Y001350D02*
X013246Y001564D01*
X013246Y001671D01*
X013464Y001671D02*
X013464Y001030D01*
X013464Y001350D02*
X013677Y001350D01*
X013464Y001671D02*
X013891Y001671D01*
X014108Y001564D02*
X014108Y001137D01*
X014215Y001030D01*
X014428Y001030D01*
X014535Y001137D01*
X014535Y001350D01*
X014322Y001350D01*
X014535Y001564D02*
X014428Y001671D01*
X014215Y001671D01*
X014108Y001564D01*
X012819Y001564D02*
X012819Y001671D01*
X015397Y001564D02*
X015397Y001137D01*
X015504Y001030D01*
X015718Y001030D01*
X015824Y001137D01*
X015824Y001564D01*
X015718Y001671D01*
X015504Y001671D01*
X015397Y001564D01*
X016042Y001564D02*
X016042Y001137D01*
X016149Y001030D01*
X016362Y001030D01*
X016469Y001137D01*
X016469Y001564D01*
X016362Y001671D01*
X016149Y001671D01*
X016042Y001564D01*
X016686Y001671D02*
X016686Y001030D01*
X016686Y001244D02*
X017113Y001671D01*
X017331Y001350D02*
X017758Y001350D01*
X017975Y001244D02*
X018082Y001350D01*
X018296Y001350D01*
X018403Y001244D01*
X018403Y001137D01*
X018296Y001030D01*
X018082Y001030D01*
X017975Y001137D01*
X017975Y001244D01*
X018082Y001350D02*
X017975Y001457D01*
X017975Y001564D01*
X018082Y001671D01*
X018296Y001671D01*
X018403Y001564D01*
X018403Y001457D01*
X018296Y001350D01*
X017651Y001030D02*
X017651Y001671D01*
X017331Y001350D01*
X017113Y001030D02*
X016793Y001350D01*
X019265Y001244D02*
X019478Y001030D01*
X019692Y001244D01*
X019692Y001671D01*
X019909Y001457D02*
X020123Y001671D01*
X020123Y001030D01*
X020336Y001030D02*
X019909Y001030D01*
X020554Y001030D02*
X020660Y001030D01*
X020660Y001137D01*
X020554Y001137D01*
X020554Y001030D01*
X020876Y001030D02*
X021303Y001030D01*
X021089Y001030D02*
X021089Y001671D01*
X020876Y001457D01*
X019265Y001671D02*
X019265Y001244D01*
X013560Y014350D02*
X012420Y014350D01*
X012420Y014650D01*
X013560Y014650D01*
X013560Y014350D01*
X019420Y014850D02*
X019420Y015150D01*
X020560Y015150D01*
X020560Y014850D01*
X019420Y014850D01*
D11*
X003420Y010629D02*
X003420Y010399D01*
X003880Y010399D01*
X003727Y010399D02*
X003727Y010629D01*
X003650Y010706D01*
X003496Y010706D01*
X003420Y010629D01*
X003496Y010860D02*
X003420Y010936D01*
X003420Y011090D01*
X003496Y011167D01*
X003573Y011167D01*
X003880Y010860D01*
X003880Y011167D01*
X003880Y010706D02*
X003727Y010553D01*
X004420Y010526D02*
X004496Y010449D01*
X004803Y010449D01*
X004880Y010526D01*
X004880Y010679D01*
X004803Y010756D01*
X004880Y010910D02*
X004880Y011217D01*
X004880Y011063D02*
X004420Y011063D01*
X004573Y010910D01*
X004496Y010756D02*
X004420Y010679D01*
X004420Y010526D01*
X005420Y010526D02*
X005496Y010449D01*
X005803Y010449D01*
X005880Y010526D01*
X005880Y010679D01*
X005803Y010756D01*
X005880Y010910D02*
X005573Y011217D01*
X005496Y011217D01*
X005420Y011140D01*
X005420Y010986D01*
X005496Y010910D01*
X005496Y010756D02*
X005420Y010679D01*
X005420Y010526D01*
X005880Y010910D02*
X005880Y011217D01*
X005996Y013199D02*
X006303Y013199D01*
X006380Y013276D01*
X006380Y013429D01*
X006303Y013506D01*
X006303Y013660D02*
X006380Y013736D01*
X006380Y013890D01*
X006303Y013967D01*
X006227Y013967D01*
X006150Y013890D01*
X006150Y013813D01*
X006150Y013890D02*
X006073Y013967D01*
X005996Y013967D01*
X005920Y013890D01*
X005920Y013736D01*
X005996Y013660D01*
X005996Y013506D02*
X005920Y013429D01*
X005920Y013276D01*
X005996Y013199D01*
X005080Y015720D02*
X004620Y015720D01*
X004620Y015950D01*
X004696Y016027D01*
X004850Y016027D01*
X004927Y015950D01*
X004927Y015720D01*
X004927Y015873D02*
X005080Y016027D01*
X005003Y016180D02*
X005080Y016257D01*
X005080Y016411D01*
X005003Y016487D01*
X004927Y016487D01*
X004850Y016411D01*
X004850Y016334D01*
X004850Y016411D02*
X004773Y016487D01*
X004696Y016487D01*
X004620Y016411D01*
X004620Y016257D01*
X004696Y016180D01*
X004080Y016180D02*
X004080Y016487D01*
X004080Y016334D02*
X003620Y016334D01*
X003773Y016180D01*
X003696Y016027D02*
X003850Y016027D01*
X003927Y015950D01*
X003927Y015720D01*
X004080Y015720D02*
X003620Y015720D01*
X003620Y015950D01*
X003696Y016027D01*
X003927Y015873D02*
X004080Y016027D01*
X012920Y013090D02*
X013150Y012860D01*
X013150Y013167D01*
X013380Y013090D02*
X012920Y013090D01*
X012996Y012706D02*
X013150Y012706D01*
X013227Y012629D01*
X013227Y012399D01*
X013380Y012399D02*
X012920Y012399D01*
X012920Y012629D01*
X012996Y012706D01*
X013227Y012553D02*
X013380Y012706D01*
X015120Y013747D02*
X015196Y013670D01*
X015503Y013670D01*
X015580Y013747D01*
X015580Y013900D01*
X015503Y013977D01*
X015350Y014130D02*
X015120Y014361D01*
X015580Y014361D01*
X015350Y014437D02*
X015350Y014130D01*
X015196Y013977D02*
X015120Y013900D01*
X015120Y013747D01*
X015171Y009230D02*
X015018Y009230D01*
X014941Y009154D01*
X014941Y009077D01*
X015018Y009000D01*
X015171Y009000D01*
X015248Y008923D01*
X015248Y008847D01*
X015171Y008770D01*
X015018Y008770D01*
X014941Y008847D01*
X014787Y009000D02*
X014711Y008923D01*
X014480Y008923D01*
X014480Y008770D02*
X014480Y009230D01*
X014711Y009230D01*
X014787Y009154D01*
X014787Y009000D01*
X015171Y009230D02*
X015248Y009154D01*
X015171Y008230D02*
X014941Y008230D01*
X014941Y007770D01*
X015171Y007770D01*
X015248Y007847D01*
X015248Y008154D01*
X015171Y008230D01*
X014787Y008230D02*
X014480Y007770D01*
X014173Y007770D02*
X014173Y008230D01*
X014020Y008230D02*
X014327Y008230D01*
X014480Y008230D02*
X014787Y007770D01*
X014787Y007230D02*
X014480Y006770D01*
X014327Y006770D02*
X014173Y006923D01*
X014250Y006923D02*
X014020Y006923D01*
X014020Y006770D02*
X014020Y007230D01*
X014250Y007230D01*
X014327Y007154D01*
X014327Y007000D01*
X014250Y006923D01*
X014480Y007230D02*
X014787Y006770D01*
X014941Y006770D02*
X014941Y007230D01*
X015171Y007230D01*
X015248Y007154D01*
X015248Y006847D01*
X015171Y006770D01*
X014941Y006770D01*
X014941Y006230D02*
X015171Y006230D01*
X015248Y006154D01*
X015248Y005847D01*
X015171Y005770D01*
X014941Y005770D01*
X014941Y006230D01*
X014787Y006230D02*
X014787Y005770D01*
X014480Y006230D01*
X014480Y005770D01*
X014327Y005847D02*
X014327Y006000D01*
X014173Y006000D01*
X014020Y005847D02*
X014020Y006154D01*
X014097Y006230D01*
X014250Y006230D01*
X014327Y006154D01*
X014327Y005847D02*
X014250Y005770D01*
X014097Y005770D01*
X014020Y005847D01*
X014020Y005230D02*
X014020Y004923D01*
X014173Y004770D01*
X014327Y004923D01*
X014327Y005230D01*
X014480Y005154D02*
X014480Y004847D01*
X014557Y004770D01*
X014711Y004770D01*
X014787Y004847D01*
X014941Y004847D02*
X014941Y005154D01*
X015018Y005230D01*
X015171Y005230D01*
X015248Y005154D01*
X015248Y004847D02*
X015171Y004770D01*
X015018Y004770D01*
X014941Y004847D01*
X014787Y005154D02*
X014711Y005230D01*
X014557Y005230D01*
X014480Y005154D01*
X014020Y008770D02*
X014020Y009230D01*
X014250Y009230D01*
X014327Y009154D01*
X014327Y009000D01*
X014250Y008923D01*
X014020Y008923D01*
X019920Y012899D02*
X019920Y013129D01*
X019996Y013206D01*
X020150Y013206D01*
X020227Y013129D01*
X020227Y012899D01*
X020380Y012899D02*
X019920Y012899D01*
X020227Y013053D02*
X020380Y013206D01*
X020303Y013360D02*
X020380Y013436D01*
X020380Y013590D01*
X020303Y013667D01*
X020150Y013667D01*
X020073Y013590D01*
X020073Y013513D01*
X020150Y013360D01*
X019920Y013360D01*
X019920Y013667D01*
X022120Y014247D02*
X022196Y014170D01*
X022503Y014170D01*
X022580Y014247D01*
X022580Y014400D01*
X022503Y014477D01*
X022503Y014630D02*
X022580Y014707D01*
X022580Y014861D01*
X022503Y014937D01*
X022350Y014937D01*
X022273Y014861D01*
X022273Y014784D01*
X022350Y014630D01*
X022120Y014630D01*
X022120Y014937D01*
X022196Y014477D02*
X022120Y014400D01*
X022120Y014247D01*
D12*
X020415Y013600D02*
X020340Y013675D01*
X020190Y013675D01*
X020115Y013600D01*
X019954Y013675D02*
X019654Y013675D01*
X019804Y013675D02*
X019804Y013225D01*
X020115Y013225D02*
X020415Y013525D01*
X020415Y013600D01*
X020415Y013225D02*
X020115Y013225D01*
X023000Y012000D02*
X012500Y012000D01*
X012500Y002000D01*
X023000Y002000D01*
X023000Y012000D01*
X013415Y012725D02*
X013115Y012725D01*
X013265Y012725D02*
X013265Y013175D01*
X013115Y013025D01*
X012954Y013175D02*
X012654Y013175D01*
X012804Y013175D02*
X012804Y012725D01*
M02*
