G75*
G70*
%OFA0B0*%
%FSLAX24Y24*%
%IPPOS*%
%LPD*%
%AMOC8*
5,1,8,0,0,1.08239X$1,22.5*
%
%ADD10C,0.1340*%
%ADD11C,0.0674*%
%ADD12C,0.0789*%
%ADD13C,0.0671*%
%ADD14R,0.0671X0.0592*%
%ADD15OC8,0.0905*%
%ADD16OC8,0.1350*%
%ADD17R,0.0390X0.0430*%
%ADD18C,0.0595*%
%ADD19C,0.2055*%
%ADD20R,0.0476X0.0476*%
D10*
X-000500Y001500D03*
X-000500Y019500D03*
X026000Y019500D03*
X026000Y001500D03*
D11*
X009000Y001000D03*
X009000Y002000D03*
X009000Y003000D03*
X009000Y004000D03*
X009000Y005000D03*
X009000Y006000D03*
X009000Y007000D03*
X009000Y008000D03*
X009000Y009000D03*
X009000Y010000D03*
X009000Y011000D03*
X009000Y012000D03*
X009000Y013000D03*
X009000Y014000D03*
X009000Y015000D03*
X009000Y016000D03*
X009000Y017000D03*
X009000Y018000D03*
X009000Y019000D03*
X009000Y020000D03*
X002000Y020000D03*
X002000Y019000D03*
X002000Y018000D03*
X002000Y017000D03*
X002000Y016000D03*
X002000Y015000D03*
X002000Y014000D03*
X002000Y013000D03*
X002000Y012000D03*
X002000Y011000D03*
X002000Y010000D03*
X002000Y009000D03*
X002000Y008000D03*
X002000Y007000D03*
X002000Y006000D03*
X002000Y005000D03*
X002000Y004000D03*
X002000Y003000D03*
X002000Y002000D03*
X002000Y001000D03*
X004500Y001091D03*
X005500Y001091D03*
X006500Y001091D03*
D12*
X006573Y019949D03*
X004427Y019949D03*
D13*
X004545Y018756D03*
X006455Y018756D03*
D14*
X006000Y015585D03*
X006000Y014915D03*
X005000Y014835D03*
X005000Y014165D03*
X004000Y014165D03*
X004000Y014835D03*
X003500Y012835D03*
X003500Y012165D03*
X004500Y012165D03*
X004500Y012835D03*
X005500Y012835D03*
X005500Y012165D03*
X012500Y012665D03*
X012500Y013335D03*
X014500Y013665D03*
X014500Y014335D03*
X019500Y013835D03*
X019500Y013165D03*
X021500Y014165D03*
X021500Y014835D03*
D15*
X020000Y017000D03*
X013000Y017000D03*
X005500Y017000D03*
D16*
X003300Y017000D03*
X005500Y020000D03*
X007700Y017000D03*
X010800Y017000D03*
X013000Y020000D03*
X015200Y017000D03*
X017800Y017000D03*
X020000Y020000D03*
X022200Y017000D03*
D17*
X019990Y015400D03*
X019610Y014600D03*
X020370Y014600D03*
X013370Y014100D03*
X012610Y014100D03*
X012990Y014900D03*
D18*
X012743Y009000D02*
X013257Y009000D01*
X013257Y008000D02*
X012743Y008000D01*
X012743Y007000D02*
X013257Y007000D01*
X013257Y006000D02*
X012743Y006000D01*
X012743Y005000D02*
X013257Y005000D01*
D19*
X021661Y003425D03*
D20*
X014500Y013000D03*
X013500Y013500D03*
X007000Y014000D03*
X005500Y011500D03*
X004500Y011500D03*
X003500Y011500D03*
X020500Y014000D03*
X021500Y013500D03*
M02*
