%
M48
M72
T01C0.0236
T02C0.0315
T03C0.0394
T04C0.0550
T05C0.0591
T06C0.0709
T07C0.0870
T08C0.1260
T09C0.1575
%
T01
X3500Y11500
X4500Y11500
X5500Y11500
X7000Y14000
X13500Y13500
X14500Y13000
X20500Y14000
X21500Y13500
T02
X13000Y9000
X13000Y8000
X13000Y7000
X13000Y6000
X13000Y5000
T03
X9000Y5000
X9000Y6000
X9000Y7000
X9000Y8000
X9000Y9000
X9000Y10000
X9000Y11000
X9000Y12000
X9000Y13000
X9000Y14000
X9000Y15000
X9000Y16000
X9000Y17000
X9000Y18000
X9000Y19000
X9000Y20000
X2000Y20000
X2000Y19000
X2000Y18000
X2000Y17000
X2000Y16000
X2000Y15000
X2000Y14000
X2000Y13000
X2000Y12000
X2000Y11000
X2000Y10000
X2000Y9000
X2000Y8000
X2000Y7000
X2000Y6000
X2000Y5000
X2000Y4000
X2000Y3000
X2000Y2000
X2000Y1000
X4500Y1091
X5500Y1091
X6500Y1091
X9000Y1000
X9000Y2000
X9000Y3000
X9000Y4000
T04
X5500Y17000
X13000Y17000
X20000Y17000
T05
X6455Y18756
X4545Y18756
T06
X4427Y19949
X6573Y19949
T07
X5500Y20000
X3300Y17000
X7700Y17000
X10800Y17000
X13000Y20000
X15200Y17000
X17800Y17000
X20000Y20000
X22200Y17000
T08
X-500Y1500
X-500Y19500
X26000Y19500
X26000Y1500
T09
X21661Y3425
M30
