G75*
%MOIN*%
%OFA0B0*%
%FSLAX25Y25*%
%IPPOS*%
%LPD*%
%AMOC8*
5,1,8,0,0,1.08239X$1,22.5*
%
%ADD10C,0.00000*%
%ADD11C,0.06800*%
%ADD12R,0.06737X0.06737*%
%ADD13C,0.06737*%
%ADD14R,0.06706X0.05918*%
%ADD15R,0.05918X0.06706*%
%ADD16R,0.06312X0.04737*%
%ADD17C,0.04369*%
D10*
X0001610Y0001000D02*
X0190586Y0001000D01*
X0190586Y0073835D01*
X0001610Y0073835D01*
X0001610Y0001000D01*
D11*
X0020921Y0011780D02*
X0020921Y0017780D01*
X0030921Y0017780D02*
X0030921Y0011780D01*
X0040921Y0011780D02*
X0040921Y0017780D01*
X0050921Y0017780D02*
X0050921Y0011780D01*
X0060921Y0011780D02*
X0060921Y0017780D01*
X0070921Y0017780D02*
X0070921Y0011780D01*
X0080921Y0011780D02*
X0080921Y0017780D01*
X0090921Y0017780D02*
X0090921Y0011780D01*
X0100921Y0011780D02*
X0100921Y0017780D01*
X0110921Y0017780D02*
X0110921Y0011780D01*
X0120921Y0011780D02*
X0120921Y0017780D01*
X0130921Y0017780D02*
X0130921Y0011780D01*
X0140921Y0011780D02*
X0140921Y0017780D01*
X0150921Y0017780D02*
X0150921Y0011780D01*
X0160921Y0011780D02*
X0160921Y0017780D01*
X0170921Y0017780D02*
X0170921Y0011780D01*
D12*
X0123657Y0050213D03*
X0027200Y0050213D03*
D13*
X0037043Y0050213D03*
X0046885Y0050213D03*
X0056728Y0050213D03*
X0133500Y0050213D03*
X0143342Y0050213D03*
X0153185Y0050213D03*
X0163027Y0050213D03*
D14*
X0031137Y0031315D03*
X0021295Y0031315D03*
X0013421Y0034661D03*
X0013421Y0042142D03*
X0021295Y0023835D03*
X0031137Y0023835D03*
D15*
X0044130Y0033480D03*
X0051610Y0033480D03*
X0061846Y0033480D03*
X0069326Y0033480D03*
D16*
X0079956Y0037417D03*
X0088618Y0033677D03*
X0101610Y0037417D03*
X0110271Y0041157D03*
X0110271Y0033677D03*
X0088618Y0041157D03*
D17*
X0095114Y0041354D03*
X0074445Y0045291D03*
M02*
