G75*
%MOIN*%
%OFA0B0*%
%FSLAX25Y25*%
%IPPOS*%
%LPD*%
%AMOC8*
5,1,8,0,0,1.08239X$1,22.5*
%
%ADD10C,0.00000*%
%ADD11C,0.06000*%
%ADD12R,0.05937X0.05937*%
%ADD13C,0.05937*%
%ADD14R,0.05906X0.05118*%
%ADD15R,0.05118X0.05906*%
%ADD16R,0.05512X0.03937*%
%ADD17C,0.04000*%
%ADD18C,0.03569*%
D10*
X0001610Y0001000D02*
X0190586Y0001000D01*
X0190586Y0073835D01*
X0001610Y0073835D01*
X0001610Y0001000D01*
D11*
X0020921Y0011780D02*
X0020921Y0017780D01*
X0030921Y0017780D02*
X0030921Y0011780D01*
X0040921Y0011780D02*
X0040921Y0017780D01*
X0050921Y0017780D02*
X0050921Y0011780D01*
X0060921Y0011780D02*
X0060921Y0017780D01*
X0070921Y0017780D02*
X0070921Y0011780D01*
X0080921Y0011780D02*
X0080921Y0017780D01*
X0090921Y0017780D02*
X0090921Y0011780D01*
X0100921Y0011780D02*
X0100921Y0017780D01*
X0110921Y0017780D02*
X0110921Y0011780D01*
X0120921Y0011780D02*
X0120921Y0017780D01*
X0130921Y0017780D02*
X0130921Y0011780D01*
X0140921Y0011780D02*
X0140921Y0017780D01*
X0150921Y0017780D02*
X0150921Y0011780D01*
X0160921Y0011780D02*
X0160921Y0017780D01*
X0170921Y0017780D02*
X0170921Y0011780D01*
D12*
X0123657Y0050213D03*
X0027200Y0050213D03*
D13*
X0037043Y0050213D03*
X0046885Y0050213D03*
X0056728Y0050213D03*
X0133500Y0050213D03*
X0143342Y0050213D03*
X0153185Y0050213D03*
X0163027Y0050213D03*
D14*
X0031137Y0031315D03*
X0021295Y0031315D03*
X0013421Y0034661D03*
X0013421Y0042142D03*
X0021295Y0023835D03*
X0031137Y0023835D03*
D15*
X0044130Y0033480D03*
X0051610Y0033480D03*
X0061846Y0033480D03*
X0069326Y0033480D03*
D16*
X0079956Y0037417D03*
X0088618Y0033677D03*
X0101610Y0037417D03*
X0110271Y0041157D03*
X0110271Y0033677D03*
X0088618Y0041157D03*
D17*
X0089208Y0041354D02*
X0095114Y0041354D01*
X0101019Y0037417D02*
X0101019Y0051197D01*
X0056728Y0051197D01*
X0056728Y0050213D01*
X0074445Y0045291D02*
X0079366Y0045291D01*
X0079366Y0037417D01*
X0070507Y0041354D02*
X0070507Y0033480D01*
X0060665Y0033480D02*
X0052791Y0033480D01*
X0052791Y0024622D01*
X0040980Y0024622D01*
X0040980Y0014780D01*
X0031137Y0014780D02*
X0031137Y0022654D01*
X0021295Y0023638D02*
X0020311Y0023638D01*
X0020311Y0014780D01*
X0012437Y0033480D02*
X0030153Y0033480D01*
X0029169Y0033480D02*
X0042948Y0033480D01*
X0027200Y0041354D02*
X0027200Y0050213D01*
X0037043Y0050213D02*
X0037043Y0058087D01*
X0013421Y0059071D02*
X0110862Y0059071D01*
X0110862Y0042339D01*
X0110862Y0041354D02*
X0110862Y0058087D01*
X0143342Y0050213D02*
X0143342Y0036433D01*
X0120704Y0036433D01*
X0120704Y0012811D01*
X0130547Y0013795D02*
X0130547Y0030528D01*
X0153185Y0030528D01*
X0153185Y0050213D01*
X0162043Y0050213D02*
X0163027Y0050213D01*
X0163027Y0024622D01*
X0141374Y0024622D01*
X0141374Y0014780D01*
X0110862Y0013795D02*
X0110862Y0033480D01*
X0101019Y0027575D02*
X0089208Y0027575D01*
X0089208Y0033480D01*
X0101019Y0027575D02*
X0101019Y0014780D01*
X0070507Y0041354D02*
X0027200Y0041354D01*
X0013421Y0043323D02*
X0013421Y0059071D01*
D18*
X0074445Y0045291D03*
X0095114Y0041354D03*
M02*
