G75*
%MOIN*%
%OFA0B0*%
%FSLAX25Y25*%
%IPPOS*%
%LPD*%
%AMOC8*
5,1,8,0,0,1.08239X$1,22.5*
%
%ADD10C,0.00000*%
%ADD11C,0.00600*%
%ADD12C,0.00500*%
%ADD13C,0.00400*%
D10*
X0001610Y0001000D02*
X0190586Y0001000D01*
X0190586Y0073835D01*
X0001610Y0073835D01*
X0001610Y0001000D01*
D11*
X0015921Y0012280D02*
X0018421Y0009780D01*
X0023421Y0009780D01*
X0025921Y0012280D01*
X0028421Y0009780D01*
X0033421Y0009780D01*
X0035921Y0012280D01*
X0038421Y0009780D01*
X0043421Y0009780D01*
X0045921Y0012280D01*
X0048421Y0009780D01*
X0053421Y0009780D01*
X0055921Y0012280D01*
X0058421Y0009780D01*
X0063421Y0009780D01*
X0065921Y0012280D01*
X0068421Y0009780D01*
X0073421Y0009780D01*
X0075921Y0012280D01*
X0078421Y0009780D01*
X0083421Y0009780D01*
X0085921Y0012280D01*
X0088421Y0009780D01*
X0093421Y0009780D01*
X0095921Y0012280D01*
X0098421Y0009780D01*
X0103421Y0009780D01*
X0105921Y0012280D01*
X0108421Y0009780D01*
X0113421Y0009780D01*
X0115921Y0012280D01*
X0118421Y0009780D01*
X0123421Y0009780D01*
X0125921Y0012280D01*
X0128421Y0009780D01*
X0133421Y0009780D01*
X0135921Y0012280D01*
X0138421Y0009780D01*
X0143421Y0009780D01*
X0145921Y0012280D01*
X0148421Y0009780D01*
X0153421Y0009780D01*
X0155921Y0012280D01*
X0158421Y0009780D01*
X0163421Y0009780D01*
X0165921Y0012280D01*
X0168421Y0009780D01*
X0173421Y0009780D01*
X0175921Y0012280D01*
X0175921Y0017280D01*
X0173421Y0019780D01*
X0168421Y0019780D01*
X0165921Y0017280D01*
X0163421Y0019780D01*
X0158421Y0019780D01*
X0155921Y0017280D01*
X0153421Y0019780D01*
X0148421Y0019780D01*
X0145921Y0017280D01*
X0143421Y0019780D01*
X0138421Y0019780D01*
X0135921Y0017280D01*
X0133421Y0019780D01*
X0128421Y0019780D01*
X0125921Y0017280D01*
X0123421Y0019780D01*
X0118421Y0019780D01*
X0115921Y0017280D01*
X0113421Y0019780D01*
X0108421Y0019780D01*
X0105921Y0017280D01*
X0103421Y0019780D01*
X0098421Y0019780D01*
X0095921Y0017280D01*
X0093421Y0019780D01*
X0088421Y0019780D01*
X0085921Y0017280D01*
X0083421Y0019780D01*
X0078421Y0019780D01*
X0075921Y0017280D01*
X0073421Y0019780D01*
X0068421Y0019780D01*
X0065921Y0017280D01*
X0063421Y0019780D01*
X0058421Y0019780D01*
X0055921Y0017280D01*
X0053421Y0019780D01*
X0048421Y0019780D01*
X0045921Y0017280D01*
X0043421Y0019780D01*
X0038421Y0019780D01*
X0035921Y0017280D01*
X0033421Y0019780D01*
X0028421Y0019780D01*
X0025921Y0017280D01*
X0023421Y0019780D01*
X0018421Y0019780D01*
X0015921Y0017280D01*
X0015921Y0012280D01*
D12*
X0017752Y0040961D02*
X0066177Y0040961D01*
X0066177Y0063598D01*
X0017752Y0063598D01*
X0017752Y0040961D01*
X0020468Y0043717D02*
X0063460Y0043717D01*
X0063460Y0055213D01*
X0020468Y0055213D01*
X0020468Y0043717D01*
X0020468Y0055213D02*
X0020468Y0060843D01*
X0063460Y0060843D01*
X0063460Y0055213D01*
X0114208Y0063598D02*
X0114208Y0040961D01*
X0172476Y0040961D01*
X0172476Y0063598D01*
X0114208Y0063598D01*
X0116964Y0060843D02*
X0116964Y0055213D01*
X0169720Y0055213D01*
X0169720Y0060843D01*
X0116964Y0060843D01*
X0116964Y0055213D02*
X0116964Y0043717D01*
X0169720Y0043717D01*
X0169720Y0055213D01*
X0180392Y0017175D02*
X0180392Y0012671D01*
X0178891Y0012671D02*
X0181894Y0012671D01*
X0184246Y0013422D02*
X0184996Y0012671D01*
X0185747Y0012671D01*
X0186498Y0013422D01*
X0184246Y0013422D02*
X0184246Y0017175D01*
X0184996Y0017175D02*
X0183495Y0017175D01*
X0181894Y0015674D02*
X0180392Y0017175D01*
D13*
X0112313Y0052400D02*
X0111546Y0051633D01*
X0110778Y0051633D01*
X0110011Y0052400D01*
X0110011Y0056237D01*
X0110778Y0056237D02*
X0109244Y0056237D01*
X0107709Y0055470D02*
X0106942Y0056237D01*
X0105407Y0056237D01*
X0104640Y0055470D01*
X0104640Y0054702D01*
X0105407Y0053935D01*
X0104640Y0053168D01*
X0104640Y0052400D01*
X0105407Y0051633D01*
X0106942Y0051633D01*
X0107709Y0052400D01*
X0106174Y0053935D02*
X0105407Y0053935D01*
X0076880Y0051416D02*
X0076113Y0050649D01*
X0075345Y0050649D01*
X0074578Y0051416D01*
X0074578Y0055253D01*
X0075345Y0055253D02*
X0073811Y0055253D01*
X0072276Y0054485D02*
X0071509Y0055253D01*
X0069974Y0055253D01*
X0069207Y0054485D01*
X0069207Y0053718D01*
X0072276Y0050649D01*
X0069207Y0050649D01*
M02*
