%
M48
M72
T01C0.0197
T02C0.0394
T03C0.0400
%
T01
X9511Y4135
X7444Y4529
T02
X2720Y5021
X3704Y5021
X4689Y5021
X5673Y5021
X12366Y5021
X13350Y5021
X14334Y5021
X15318Y5021
X16303Y5021
T03
X17092Y1478
X16092Y1478
X15092Y1478
X14092Y1478
X13092Y1478
X12092Y1478
X11092Y1478
X10092Y1478
X9092Y1478
X8092Y1478
X7092Y1478
X6092Y1478
X5092Y1478
X4092Y1478
X3092Y1478
X2092Y1478
M30
