G75*
%MOIN*%
%OFA0B0*%
%FSLAX25Y25*%
%IPPOS*%
%LPD*%
%AMOC8*
5,1,8,0,0,1.08239X$1,22.5*
%
%ADD10C,0.00000*%
%ADD11C,0.06000*%
%ADD12R,0.05937X0.05937*%
%ADD13C,0.05937*%
%ADD14C,0.07600*%
%ADD15C,0.04000*%
%ADD16C,0.03569*%
D10*
X0001610Y0001000D02*
X0190586Y0001000D01*
X0190586Y0073835D01*
X0001610Y0073835D01*
X0001610Y0001000D01*
D11*
X0020921Y0011780D02*
X0020921Y0017780D01*
X0030921Y0017780D02*
X0030921Y0011780D01*
X0040921Y0011780D02*
X0040921Y0017780D01*
X0050921Y0017780D02*
X0050921Y0011780D01*
X0060921Y0011780D02*
X0060921Y0017780D01*
X0070921Y0017780D02*
X0070921Y0011780D01*
X0080921Y0011780D02*
X0080921Y0017780D01*
X0090921Y0017780D02*
X0090921Y0011780D01*
X0100921Y0011780D02*
X0100921Y0017780D01*
X0110921Y0017780D02*
X0110921Y0011780D01*
X0120921Y0011780D02*
X0120921Y0017780D01*
X0130921Y0017780D02*
X0130921Y0011780D01*
X0140921Y0011780D02*
X0140921Y0017780D01*
X0150921Y0017780D02*
X0150921Y0011780D01*
X0160921Y0011780D02*
X0160921Y0017780D01*
X0170921Y0017780D02*
X0170921Y0011780D01*
D12*
X0123657Y0050213D03*
X0027200Y0050213D03*
D13*
X0037043Y0050213D03*
X0046885Y0050213D03*
X0056728Y0050213D03*
X0133500Y0050213D03*
X0143342Y0050213D03*
X0153185Y0050213D03*
X0163027Y0050213D03*
D14*
X0133500Y0050213D02*
X0133500Y0030528D01*
X0031137Y0030528D01*
X0031137Y0014780D01*
X0020311Y0014780D02*
X0014405Y0014780D01*
X0014405Y0061039D01*
X0123657Y0061039D01*
X0123657Y0049228D01*
X0037043Y0050213D02*
X0037043Y0031512D01*
D15*
X0046885Y0042339D02*
X0046885Y0050213D01*
X0046885Y0042339D02*
X0074445Y0042339D01*
X0074445Y0045291D01*
X0095114Y0041354D02*
X0095114Y0032496D01*
D16*
X0095114Y0041354D03*
X0074445Y0045291D03*
M02*
